<svg width="43" height="30" viewBox="0 0 43 30" fill="none" xmlns="http://www.w3.org/2000/svg">
<path d="M2.14286 4.28571H40.7143C41.8977 4.28571 42.8571 3.32625 42.8571 2.14286C42.8571 0.959464 41.8977 0 40.7143 0H2.14286C0.959464 0 0 0.959464 0 2.14286C0 3.32625 0.959464 4.28571 2.14286 4.28571ZM40.7143 12.8571H2.14286C0.959464 12.8571 0 13.8166 0 15C0 16.1834 0.959464 17.1429 2.14286 17.1429H40.7143C41.8977 17.1429 42.8571 16.1834 42.8571 15C42.8571 13.8166 41.8977 12.8571 40.7143 12.8571ZM40.7143 25.7143H2.14286C0.959464 25.7143 0 26.6737 0 27.8571C0 29.0405 0.959464 30 2.14286 30H40.7143C41.8977 30 42.8571 29.0405 42.8571 27.8571C42.8571 26.6737 41.8977 25.7143 40.7143 25.7143Z" fill="white"/>
</svg>
